<?xml version="1.0" standalone="no"?>
<!DOCTYPE svg PUBLIC "-//W3C//DTD SVG 20010904//EN"
 "http://www.w3.org/TR/2001/REC-SVG-20010904/DTD/svg10.dtd">
<svg version="1.0" xmlns="http://www.w3.org/2000/svg"
 width="524.000000pt" height="524.000000pt" viewBox="0 0 524.000000 524.000000"
 preserveAspectRatio="xMidYMid meet">
<metadata>
Created by potrace 1.11, written by Peter Selinger 2001-2013
</metadata>
<g transform="translate(0.000000,524.000000) scale(0.100000,-0.100000)"
fill="#000000" stroke="none">
<path d="M3021 4947 c-50 -18 -76 -58 -76 -118 0 -41 5 -53 31 -80 91 -90 238
-5 205 119 -19 67 -91 103 -160 79z"/>
<path d="M2088 4744 c-24 -52 31 -102 81 -74 25 13 28 61 5 84 -25 26 -72 20
-86 -10z"/>
<path d="M3120 4674 c0 -5 4 -24 9 -42 12 -39 0 -41 -29 -4 -12 15 -19 19 -16
10 4 -13 1 -15 -12 -11 -16 6 -16 5 -1 -13 27 -33 69 -130 69 -160 0 -16 -9
-63 -20 -104 -12 -47 -20 -111 -21 -170 0 -52 -4 -133 -8 -180 -5 -50 -4 -106
2 -136 9 -44 8 -57 -9 -90 -16 -33 -18 -51 -13 -114 5 -53 3 -88 -7 -118 -18
-55 -18 -77 1 -92 8 -7 15 -16 15 -21 0 -14 -39 -49 -54 -49 -20 0 -36 54 -36
121 0 82 -17 155 -53 222 -32 62 -74 94 -132 104 -46 7 -44 23 7 59 69 49 108
90 108 116 0 23 -42 101 -81 149 -32 41 -36 108 -9 156 l22 40 -31 87 c-17 49
-42 103 -56 122 -28 37 -79 68 -98 60 -7 -2 -4 -5 5 -5 21 -1 95 -91 119 -146
22 -51 32 -116 20 -133 -7 -12 -14 -11 -39 2 -61 32 -112 133 -112 225 0 33
-3 42 -10 31 -26 -40 -6 -113 61 -220 46 -73 52 -87 83 -213 l27 -108 -33 -44
c-41 -54 -94 -85 -144 -85 -45 1 -64 11 -123 61 l-41 36 15 59 c26 101 18 142
-35 169 -16 8 -47 15 -70 15 -69 0 -96 -45 -115 -193 l-6 -47 -42 6 c-118 15
-189 41 -370 132 -167 84 -191 100 -218 138 -46 67 -90 88 -143 68 -22 -8 -10
-24 19 -24 19 0 25 -8 34 -48 15 -59 35 -76 191 -162 163 -90 238 -140 294
-198 l49 -51 -43 -100 c-23 -56 -46 -101 -51 -101 -4 0 -25 26 -45 58 -20 31
-44 68 -54 82 -9 14 -25 50 -35 80 -32 98 -37 108 -57 127 -29 26 -148 25
-177 -1 -11 -10 -18 -23 -15 -28 3 -5 7 -19 9 -31 1 -12 6 -41 10 -64 7 -37 5
-43 -10 -43 -16 0 -16 -2 -2 -23 14 -22 13 -24 -17 -44 -45 -30 -131 -53 -211
-57 -38 -2 -83 -8 -98 -15 -16 -6 -34 -11 -42 -11 -18 0 -45 -28 -45 -47 0
-14 3 -14 20 2 14 12 23 15 32 8 20 -16 214 -15 303 1 44 8 82 13 86 10 11 -6
21 -82 22 -178 2 -78 0 -90 -18 -102 -11 -8 -31 -14 -44 -14 -51 0 -203 -54
-219 -78 -18 -28 -10 -58 48 -197 54 -128 55 -124 -8 -145 -62 -21 -121 -73
-147 -131 -10 -21 -22 -39 -26 -39 -11 0 -10 138 2 145 14 9 11 52 -5 84 -41
78 -133 118 -200 86 -59 -28 -94 -143 -62 -206 31 -62 18 -109 -30 -109 -8 0
-35 -15 -61 -34 -27 -18 -67 -43 -91 -55 -47 -24 -78 -76 -67 -111 9 -29 -68
-107 -134 -137 -31 -13 -79 -42 -109 -64 -64 -49 -156 -92 -191 -91 -14 0 -52
5 -85 11 -35 6 -63 6 -70 0 -6 -5 -26 -21 -44 -35 -44 -35 -62 -73 -62 -131 0
-96 71 -165 169 -165 113 0 184 88 167 205 l-7 42 118 39 c160 52 221 86 293
163 33 35 64 62 69 59 5 -4 12 -19 16 -36 3 -16 15 -41 26 -55 11 -14 24 -51
29 -83 5 -31 15 -85 23 -118 12 -48 12 -70 3 -98 -6 -20 -14 -36 -18 -36 -4 0
-10 -17 -14 -37 -3 -21 -12 -48 -20 -60 -8 -12 -14 -27 -14 -32 0 -6 -23 -50
-52 -98 -29 -48 -71 -135 -95 -193 -39 -95 -42 -106 -27 -117 15 -11 15 -15
-4 -45 -19 -31 -20 -41 -12 -168 5 -74 14 -159 19 -189 16 -81 14 -181 -3
-181 -15 0 -26 -21 -26 -48 0 -21 -91 -116 -141 -148 -66 -41 -74 -87 -17 -99
50 -11 114 4 166 39 26 19 63 37 82 41 61 13 109 36 115 56 4 10 -7 48 -24 88
-28 62 -31 80 -31 171 0 73 4 110 16 132 13 25 15 52 12 127 -4 83 -2 100 14
124 11 15 27 27 36 27 29 0 136 -37 140 -48 1 -5 -8 -36 -22 -69 -28 -67 -106
-278 -106 -287 0 -3 103 -6 229 -6 226 0 229 0 234 -22 3 -12 2 -29 -3 -38 -6
-12 0 -40 19 -91 49 -127 52 -117 -26 -115 -146 2 -244 -79 -268 -221 -16 -98
54 -223 147 -263 133 -57 275 -4 338 126 25 51 27 161 4 205 -14 28 -14 34 0
70 20 49 20 92 2 127 -8 15 -20 55 -26 89 -8 41 -20 69 -36 84 -48 45 -36 49
129 49 l153 0 40 138 40 137 122 3 c118 3 122 2 122 -18 0 -40 -32 -175 -55
-235 -13 -33 -49 -134 -81 -225 -31 -91 -65 -177 -75 -191 -22 -32 -96 -64
-165 -74 -104 -14 -147 -71 -79 -105 40 -20 388 -22 422 -2 29 16 38 53 24 93
-13 38 -3 85 39 174 83 176 110 239 110 254 1 9 9 32 20 51 15 29 20 32 25 18
7 -17 38 -18 461 -18 293 0 454 4 454 10 0 5 -9 33 -20 62 -11 29 -20 56 -20
60 0 4 26 -8 58 -27 76 -45 178 -83 282 -104 l85 -17 7 -40 c3 -23 14 -58 22
-79 9 -20 16 -56 16 -79 1 -74 54 -162 105 -171 50 -9 60 4 45 62 -8 29 -10
65 -6 87 6 32 10 36 34 34 24 -3 27 0 24 24 -1 14 2 29 8 33 5 3 10 19 10 34
0 39 47 81 91 81 56 0 246 39 323 67 95 34 185 85 246 139 65 60 163 190 185
249 10 25 23 44 29 41 6 -3 47 -19 91 -36 44 -18 86 -37 93 -42 17 -15 15 -46
-6 -76 -34 -49 -51 -92 -58 -150 -3 -31 -23 -97 -44 -146 -31 -73 -44 -91 -71
-104 -21 -11 -37 -29 -47 -53 -8 -20 -25 -42 -38 -48 -13 -6 -24 -19 -24 -29
0 -25 58 -79 100 -93 19 -6 46 -22 60 -35 62 -57 201 -88 236 -52 25 24 11 60
-33 83 -28 15 -39 28 -44 55 -4 19 -4 41 1 50 11 21 -6 50 -30 50 -44 0 -15
79 100 275 42 72 92 154 110 183 18 29 33 65 33 81 0 60 -217 322 -298 360
-25 12 -45 28 -45 36 0 8 14 46 31 83 16 38 38 111 47 163 13 71 23 103 42
125 45 53 90 84 146 100 30 8 58 23 63 32 12 23 -11 109 -36 133 -18 19 -19
19 -66 -11 -29 -18 -54 -43 -62 -63 -17 -40 -54 -65 -66 -45 -5 7 -9 29 -9 48
0 33 -24 94 -52 132 -18 25 9 68 56 91 35 17 41 26 36 56 -1 8 4 34 11 59 11
42 11 45 -10 61 -17 13 -23 29 -25 72 -4 61 -13 84 -45 113 -21 19 -23 19
-109 -5 -96 -26 -146 -63 -157 -115 -13 -57 -17 -60 -30 -23 -7 19 -24 60 -38
90 -14 30 -35 80 -47 111 -11 31 -32 73 -46 94 l-26 37 28 66 c22 51 28 80 27
126 -3 93 21 169 42 135 4 -6 38 -33 77 -60 69 -49 73 -50 142 -50 40 0 99 7
131 16 106 29 101 29 108 -5 9 -45 40 -71 85 -71 56 0 84 33 81 95 -3 51 -17
72 -52 79 -71 14 -91 15 -105 4 -10 -9 -60 -14 -146 -16 l-131 -4 -62 42 c-35
23 -63 48 -63 55 0 27 -51 74 -88 81 -20 4 -54 14 -75 23 -37 16 -37 17 -31
58 10 71 -45 163 -98 163 -32 0 -67 -23 -79 -52 -9 -23 -10 -46 -1 -101 11
-68 10 -73 -9 -87 -53 -39 -89 -73 -94 -91 -9 -27 -25 -24 -25 5 0 28 -11 37
-72 60 -25 9 -49 24 -52 32 -3 8 10 69 29 135 l36 121 -98 111 c-132 150 -126
141 -134 207 -8 74 -37 116 -89 131 -47 14 -67 8 -81 -28 -8 -21 -6 -37 6 -70
21 -53 61 -88 113 -96 34 -6 49 -18 116 -96 l77 -90 3 -68 c8 -142 -65 -199
-81 -64 -5 42 -10 54 -28 61 -21 8 -22 13 -18 72 5 63 5 65 -27 92 -22 18 -40
26 -54 22 -12 -3 -29 -6 -38 -6 -29 0 -48 -60 -35 -107 13 -51 -2 -91 -44
-115 -17 -10 -38 -35 -49 -60 -37 -85 -50 -113 -62 -133 -60 -97 -61 -99 -64
-173 -2 -42 -8 -80 -14 -86 -13 -13 -12 44 1 169 5 50 9 119 9 155 -1 41 5 80
16 105 13 31 17 66 16 160 -2 127 -16 194 -66 310 -27 63 -32 129 -17 231 5
38 4 51 -6 51 -7 0 -15 -16 -18 -36 -13 -81 -36 -102 -57 -53 l-12 27 -4 -28
c-2 -16 9 -53 28 -93 19 -40 36 -101 45 -157 8 -51 18 -105 21 -122 l6 -30
-19 21 c-10 12 -37 31 -60 43 -34 17 -47 19 -72 10 -38 -13 -53 -61 -53 -166
0 -77 -5 -86 -26 -53 -17 27 -18 378 -1 471 10 55 9 74 -4 120 -14 48 -67 138
-67 113z m-528 -864 l30 0 -45 -44 c-51 -49 -80 -100 -98 -171 -10 -41 -10
-49 3 -56 9 -5 19 -28 22 -52 4 -23 16 -58 29 -77 12 -19 35 -58 52 -87 33
-56 94 -110 134 -119 46 -10 51 -13 51 -31 0 -19 -67 -122 -122 -185 -29 -35
-32 -45 -37 -130 l-7 -93 -17 39 c-10 22 -17 63 -17 99 0 33 -5 89 -11 124
l-11 63 -89 -7 c-106 -7 -110 -1 -49 73 44 53 68 99 72 135 3 22 0 24 -42 23
-25 0 -56 -2 -70 -5 -24 -4 -25 -2 -28 59 -4 91 27 197 99 336 60 117 61 118
91 112 17 -3 44 -6 60 -6z m1279 -149 c88 -22 165 -62 196 -99 18 -21 21 -22
16 -7 -6 20 -6 20 15 1 12 -11 22 -25 22 -33 0 -15 -64 -114 -115 -178 -66
-83 -72 -107 -49 -207 6 -27 4 -28 -29 -28 l-36 0 6 114 6 114 -33 64 c-18 34
-54 94 -80 132 l-48 69 25 39 c14 21 27 38 28 38 1 0 35 -9 76 -19z m-1956
-61 c9 -16 20 -30 26 -30 7 0 8 -7 4 -17 -4 -10 -18 -45 -31 -78 l-22 -60 -12
30 c-8 21 -8 35 0 50 8 15 8 29 1 49 -28 71 2 119 34 56z m1764 -180 c23 -28
60 -59 82 -70 45 -24 54 -48 45 -125 -3 -30 -2 -65 4 -79 5 -14 6 -26 1 -26
-9 0 -227 48 -253 56 -10 3 -18 14 -18 25 0 12 -7 19 -19 19 -30 0 -31 11 -10
75 29 92 84 175 114 175 7 0 31 -23 54 -50z m-1763 -132 c9 -18 20 -35 24 -38
17 -13 100 -144 97 -154 -5 -14 -285 -20 -318 -7 -17 7 -19 10 -6 10 9 1 17 7
17 15 0 7 17 32 38 55 29 34 46 44 80 48 l42 6 0 48 c0 27 2 49 5 49 2 0 12
-15 21 -32z m-276 -59 c0 -5 -16 -40 -36 -77 -33 -62 -35 -72 -29 -124 5 -46
3 -58 -8 -58 -11 0 -16 20 -21 73 -4 41 -18 95 -32 126 -13 29 -24 57 -24 62
0 5 34 9 75 9 46 0 75 -4 75 -11z m530 -128 c0 -15 -19 -23 -38 -16 -14 5 -14
7 -2 15 19 12 40 13 40 1z m1994 -180 c109 -29 171 -60 237 -117 69 -60 116
-126 139 -196 l18 -53 -26 -23 c-15 -13 -56 -43 -92 -67 l-65 -43 -150 -7
-150 -7 -13 48 c-18 66 -53 109 -115 141 -102 53 -245 29 -290 -47 -24 -40
-21 -74 8 -109 29 -34 95 -58 260 -95 179 -41 316 -83 344 -108 14 -12 42 -37
61 -55 19 -17 76 -52 127 -77 116 -58 122 -71 60 -135 -46 -47 -79 -103 -91
-156 -4 -16 -18 -44 -32 -62 -13 -17 -24 -39 -24 -48 0 -13 -62 -153 -113
-254 -8 -17 -36 -35 -87 -56 -130 -53 -160 -75 -216 -163 l-34 -52 -92 0
c-106 0 -269 22 -343 47 -91 29 -202 101 -252 162 -74 90 -125 212 -148 353
l-6 36 63 6 c93 9 364 26 409 26 34 0 39 -3 45 -27 14 -67 37 -124 64 -161 51
-71 170 -109 285 -90 109 17 165 73 165 167 0 44 -5 56 -36 91 -40 45 -96 68
-248 106 -376 93 -562 198 -638 361 -28 59 -33 81 -36 168 -4 120 15 191 73
280 61 91 191 178 315 210 108 28 178 34 365 30 143 -2 196 -7 259 -24z
m-1778 -38 c20 -49 130 -340 354 -938 59 -159 142 -380 183 -489 42 -110 78
-210 82 -223 l5 -23 -279 0 -279 0 -6 28 c-4 15 -23 78 -43 140 l-37 112 -292
0 -293 0 -26 -87 c-14 -49 -34 -110 -43 -138 l-17 -50 -273 -3 c-149 -1 -272
0 -272 2 0 7 56 158 110 296 27 69 84 220 126 335 42 116 85 229 95 251 10 23
61 158 113 300 53 143 110 297 129 344 19 47 42 106 51 133 l18 47 289 0 289
0 16 -37z m-991 -38 c6 -7 22 -15 35 -17 23 -3 25 -7 25 -63 0 -59 1 -60 28
-61 15 -1 30 -4 33 -7 13 -13 -6 -37 -29 -37 -13 0 -28 -5 -33 -10 -8 -8 -18
0 -35 24 -13 20 -43 50 -66 68 -24 17 -43 36 -43 40 0 5 9 26 20 48 20 40 41
45 65 15z m125 -24 c0 -5 -9 -19 -20 -32 l-19 -24 -1 26 c0 14 3 29 7 32 9 10
33 8 33 -2z m41 -48 c-8 -15 -10 -15 -11 -2 0 17 10 32 18 25 2 -3 -1 -13 -7
-23z m-87 -159 c17 -7 22 -39 7 -49 -10 -6 -31 25 -31 44 0 13 3 13 24 5z"/>
<path d="M3685 3249 c-19 -20 -19 -21 5 -39 30 -23 42 -17 34 18 -10 40 -18
45 -39 21z"/>
<path d="M2070 2448 c0 -10 -109 -372 -139 -465 -17 -51 -31 -97 -31 -103 0
-6 62 -10 175 -10 133 0 175 3 175 13 0 6 -20 77 -46 157 -25 80 -63 203 -85
275 -35 113 -49 152 -49 133z"/>
</g>
</svg>
